<svg width="48" height="48" viewBox="0 0 48 48" fill="none" xmlns="http://www.w3.org/2000/svg">
<path d="M41.5747 4.86315L5.6528 16.601C4.63831 16.9325 4.49161 18.3124 5.41489 18.8492L18.9901 26.743C19.4184 26.9921 19.9537 26.962 20.3513 26.6667L24.1674 23.8327L21.3334 27.6488C21.0381 28.0465 21.0081 28.5818 21.2571 29.01L29.1508 42.5853C29.6883 43.5093 31.0679 43.361 31.3991 42.3474L43.137 6.42544C43.4519 5.46089 42.5346 4.54929 41.5747 4.86315V4.86315ZM29.9027 38.95L23.809 28.4704L31.157 18.576C31.5231 18.0828 31.4727 17.3959 31.0384 16.9616C30.6041 16.5272 29.9171 16.4768 29.424 16.843L19.5296 24.191L9.04998 18.0972L40.0239 7.97612L29.9027 38.95ZM17.8056 31.9462L9.58083 40.1708C9.09712 40.6545 8.3128 40.6546 7.82909 40.1708C7.34531 39.6871 7.34531 38.9028 7.82909 38.4191L16.0538 30.1945C16.5377 29.7108 17.322 29.7107 17.8056 30.1945C18.2893 30.6782 18.2893 31.4625 17.8056 31.9462V31.9462ZM6.94003 32.2574C6.45624 31.7736 6.45624 30.9894 6.94003 30.5057L10.1854 27.2602C10.6691 26.7765 11.4534 26.7765 11.9371 27.2602C12.4209 27.744 12.4209 28.5283 11.9371 29.012L8.69176 32.2574C8.20813 32.741 7.42373 32.7411 6.94003 32.2574V32.2574ZM20.7398 36.0628C21.2236 36.5465 21.2236 37.3308 20.7398 37.8145L17.4943 41.0599C17.2525 41.3018 16.9355 41.4228 16.6185 41.4228C15.5248 41.4228 14.9601 40.0906 15.7427 39.3082L18.9881 36.0628C19.4717 35.579 20.2561 35.579 20.7398 36.0628V36.0628Z" fill="#65FBD2"/>
</svg>
