<svg width="48" height="48" viewBox="0 0 48 48" fill="none" xmlns="http://www.w3.org/2000/svg">
<path d="M47.2507 20.9963C46.8643 20.7538 43.837 18.9403 42.6339 18.3899L41.143 14.7906C41.5859 13.6005 42.4322 10.2618 42.5646 9.68295C42.6871 9.14632 42.5254 8.58439 42.1361 8.19514L39.8048 5.86386C39.4156 5.47461 38.8535 5.3128 38.317 5.43543C37.878 5.53583 34.452 6.39449 33.2093 6.85705L29.6099 5.36614C29.0833 4.2149 27.3238 1.25925 27.0035 0.74934C26.7109 0.283122 26.199 9.15527e-05 25.6485 9.15527e-05H22.3514C21.8009 9.15527e-05 21.289 0.283122 20.9963 0.74934C20.7538 1.13568 18.9403 4.16296 18.3899 5.36614L14.7906 6.85705C13.6005 6.41408 10.2618 5.5678 9.68295 5.43543C9.14633 5.31289 8.58439 5.47471 8.19514 5.86386L5.86377 8.19523C5.47452 8.58448 5.31271 9.14642 5.43533 9.68304C5.53574 10.122 6.39439 13.548 6.85696 14.7907L5.36605 18.39C4.2148 18.9166 1.25915 20.6761 0.749249 20.9964C0.283031 21.289 0 21.8009 0 22.3514V25.6485C0 26.199 0.283031 26.7109 0.749249 27.0036C1.13559 27.2461 4.16287 29.0596 5.36605 29.61L6.85696 33.2093C6.41399 34.3994 5.56771 37.7381 5.43533 38.317C5.3128 38.8536 5.47452 39.4155 5.86377 39.8048L8.19514 42.1361C8.58439 42.5254 9.14651 42.6873 9.68295 42.5646C10.1219 42.4642 13.5479 41.6055 14.7906 41.143L18.3899 42.6339C18.9166 43.7851 20.6761 46.7408 20.9963 47.2507C21.289 47.7169 21.8009 47.9999 22.3514 47.9999H25.6485C26.199 47.9999 26.7109 47.7169 27.0036 47.2507C27.2461 46.8643 29.0596 43.837 29.61 42.6339L33.2093 41.143C34.3994 41.5859 37.7381 42.4322 38.317 42.5646C38.8538 42.6874 39.4156 42.5254 39.8048 42.1361L42.1361 39.8048C42.5254 39.4155 42.6872 38.8536 42.5646 38.317C42.4642 37.878 41.6055 34.452 41.143 33.2093L42.6339 29.61C43.7851 29.0833 46.7408 27.3239 47.2507 27.0036C47.7169 26.7109 47.9999 26.199 47.9999 25.6485V22.3514C47.9999 21.8009 47.7169 21.289 47.2507 20.9963ZM24 34.4629C18.2307 34.4629 13.537 29.7692 13.537 24C13.537 18.2307 18.2307 13.5371 24 13.5371C29.7692 13.5371 34.4629 18.2308 34.4629 24C34.4629 29.7693 29.7692 34.4629 24 34.4629Z" fill="#65FBD2"/>
</svg>
