<svg width="48" height="48" viewBox="0 0 48 48" fill="" xmlns="http://www.w3.org/2000/svg">
<path d="M47.2507 20.9963C46.8643 20.7538 43.837 18.9403 42.6339 18.3899L41.143 14.7906C41.5859 13.6005 42.4322 10.2618 42.5646 9.68295C42.6871 9.14632 42.5254 8.58439 42.1361 8.19514L39.8048 5.86386C39.4156 5.47461 38.8535 5.3128 38.317 5.43543C37.878 5.53583 34.452 6.39449 33.2093 6.85705L29.6099 5.36614C29.0833 4.2149 27.3238 1.25925 27.0035 0.74934C26.7109 0.283122 26.199 9.15527e-05 25.6485 9.15527e-05H22.3514C21.8009 9.15527e-05 21.289 0.283122 20.9963 0.74934C20.7538 1.13568 18.9403 4.16296 18.3899 5.36614L14.7906 6.85705C13.6005 6.41408 10.2618 5.5678 9.68295 5.43543C9.14633 5.31289 8.58439 5.47471 8.19514 5.86386L5.86377 8.19523C5.47452 8.58448 5.31271 9.14642 5.43533 9.68304C5.53574 10.122 6.39439 13.548 6.85696 14.7907L5.36605 18.39C4.2148 18.9166 1.25915 20.6761 0.749249 20.9964C0.283031 21.289 0 21.8009 0 22.3514V25.6485C0 26.199 0.283031 26.7109 0.749249 27.0036C1.13559 27.2461 4.16287 29.0596 5.36605 29.61L6.85696 33.2093C6.41399 34.3994 5.56771 37.7381 5.43533 38.317C5.3128 38.8536 5.47452 39.4155 5.86377 39.8048L8.19514 42.1361C8.58439 42.5254 9.14651 42.6873 9.68295 42.5646C10.1219 42.4642 13.5479 41.6055 14.7906 41.143L18.3899 42.6339C18.9166 43.7851 20.6761 46.7408 20.9963 47.2507C21.289 47.7169 21.8009 47.9999 22.3514 47.9999H25.6485C26.199 47.9999 26.7109 47.7169 27.0036 47.2507C27.2461 46.8643 29.0596 43.837 29.61 42.6339L33.2093 41.143C34.3994 41.5859 37.7381 42.4322 38.317 42.5646C38.8538 42.6874 39.4156 42.5254 39.8048 42.1361L42.1361 39.8048C42.5254 39.4155 42.6872 38.8536 42.5646 38.317C42.4642 37.878 41.6055 34.452 41.143 33.2093L42.6339 29.61C43.7851 29.0833 46.7408 27.3239 47.2507 27.0036C47.7169 26.7109 47.9999 26.199 47.9999 25.6485V22.3514C47.9999 21.8009 47.7169 21.289 47.2507 20.9963ZM44.8001 24.7468H44.7999C43.6601 25.424 41.763 26.5151 41.1682 26.762C40.636 26.8497 40.1666 27.2042 39.9494 27.7288L37.9146 32.6413C37.6974 33.1658 37.7785 33.7483 38.0928 34.1867C38.3392 34.7826 38.9089 36.8951 39.2358 38.1797L38.1796 39.2359C36.8951 38.909 34.7825 38.3393 34.1866 38.0929C33.7483 37.7785 33.1656 37.6974 32.6413 37.9147L27.7287 39.9495C27.2042 40.1668 26.8497 40.636 26.7619 41.1683C26.5151 41.7631 25.4239 43.6602 24.7467 44.8H23.253C22.5758 43.6602 21.4847 41.7631 21.2378 41.1683C21.1501 40.636 20.7956 40.1667 20.2711 39.9495L15.3584 37.9147C14.8339 37.6975 14.2514 37.7786 13.8131 38.0929C13.2175 38.3393 11.1048 38.9089 9.82001 39.2359L8.76383 38.1797C9.09073 36.8952 9.66054 34.7826 9.90682 34.1867C10.2212 33.7483 10.3023 33.1658 10.085 32.6413L8.0502 27.7288C7.83289 27.2043 7.36367 26.8498 6.83146 26.762C6.23689 26.5152 4.33987 25.424 3.19996 24.7468V23.2531C4.33977 22.5759 6.23689 21.4848 6.83174 21.2379C7.36405 21.1502 7.83327 20.7957 8.05048 20.2711L10.0853 15.3586C10.3024 14.8341 10.2214 14.2516 9.90711 13.8132C9.66073 13.2173 9.09101 11.1048 8.76411 9.8202L9.82029 8.76401C11.1048 9.09092 13.2174 9.66064 13.8133 9.90701C14.2516 10.2214 14.8341 10.3024 15.3587 10.0852L20.2712 8.05039C20.7957 7.83308 21.1502 7.36386 21.238 6.83164C21.4847 6.23699 22.5759 4.33996 23.2531 3.20005H24.7468C25.424 4.33986 26.5151 6.23699 26.762 6.83183C26.8497 7.36414 27.2042 7.83336 27.7288 8.05058L32.6413 10.0854C33.1658 10.3025 33.7483 10.2216 34.1866 9.9072C34.7822 9.66082 36.895 9.0912 38.1797 8.7642L39.2359 9.82039C38.909 11.1049 38.3392 13.2175 38.0929 13.8134C37.7786 14.2518 37.6975 14.8343 37.9147 15.3587L39.9495 20.2713C40.1668 20.7958 40.636 21.1503 41.1683 21.2381C41.7631 21.4849 43.6602 22.5761 44.8 23.2533V24.7468H44.8001Z" fill="#65FBD2"/>
<path d="M23.9999 13.5371C18.2307 13.5371 13.537 18.2308 13.537 24.0001C13.537 29.7693 18.2307 34.4629 23.9999 34.4629C29.7692 34.4629 34.4629 29.7692 34.4629 24C34.4629 18.2307 29.7692 13.5371 23.9999 13.5371ZM23.9999 31.2629C19.9951 31.2629 16.737 28.0049 16.737 24.0001C16.737 19.9953 19.9951 16.7372 23.9999 16.7372C28.0047 16.7372 31.2628 19.9953 31.2628 24.0001C31.2628 28.0049 28.0047 31.2629 23.9999 31.2629Z" fill="#65FBD2"/>
</svg>
