<svg width="48" height="48" viewBox="0 0 48 48" fill="none" xmlns="http://www.w3.org/2000/svg">
<path d="M44.6577 30.2604C44.2353 27.6762 42.9585 25.3061 41.0092 23.5173C38.8576 21.5429 36.0685 20.4491 33.1487 20.4317C33.2727 19.8714 33.3592 19.302 33.4025 18.7252L30.9607 17.6729C29.6938 19.0632 27.8894 19.8607 26.0103 19.8607C22.3185 19.8607 19.315 16.8572 19.315 13.1655C19.315 11.2864 20.1125 9.48197 21.5028 8.21513L20.4505 5.77341C17.421 6.00047 14.6083 7.35338 12.5305 9.58284C11.0812 11.1382 10.0841 13.0216 9.60928 15.0531C6.27431 16.7482 3.94472 19.9351 3.34266 23.6119C1.31287 24.7118 0 26.8654 0 29.2148C0 32.7258 2.85637 35.5821 6.36722 35.5821H11.2566C11.1719 39.418 14.1064 42.2305 17.6172 42.2305H41.6329C45.1437 42.2305 48 39.3742 48 35.8633C48 33.5138 46.6873 31.3603 44.6577 30.2604V30.2604ZM14.588 11.5003C15.3536 10.6787 16.2493 10.0122 17.2306 9.52219C16.7555 10.6666 16.5024 11.9042 16.5024 13.1655C16.5024 18.408 20.6093 22.6702 26.2078 22.6702C24.981 23.5676 23.9369 24.7053 23.163 26.0323C21.9943 26.1199 20.8599 26.4397 19.8385 26.9468C15.4 26.2136 12.104 22.3597 12.104 17.8117C12.104 15.4606 12.9862 13.2192 14.588 11.5003V11.5003ZM12.0587 32.7696H6.36722C4.40719 32.7696 2.8125 31.1749 2.8125 29.2148C2.8125 27.7368 3.74316 26.3975 5.12822 25.8822L5.95781 25.5737L6.03834 24.6923C6.26016 22.267 7.46616 20.0708 9.31603 18.5753C9.6165 23.368 12.7251 27.4601 17.0942 29.1083C16.9756 29.2535 16.8621 29.4023 16.7553 29.5555C14.7381 29.8313 13.0163 31.0611 12.0587 32.7696V32.7696ZM41.6329 39.4179H17.6172C15.6572 39.4179 14.0625 37.8233 14.0625 35.8632C14.0625 33.9206 15.6429 32.3265 17.5856 32.3096L18.4155 32.3024L18.8104 31.5724C19.6953 29.9361 21.7381 28.8203 23.8196 28.8203C24.2337 28.8203 24.8941 28.848 24.8941 28.848L25.2884 28.0238C26.6776 25.1198 29.7353 23.2433 33.0782 23.2433C35.3177 23.2433 37.459 24.0765 39.1075 25.5894C40.7464 27.0934 41.7601 29.1359 41.9618 31.3407L42.0424 32.2221L42.8719 32.5306C44.2568 33.0458 45.1875 34.3852 45.1875 35.8632C45.1875 37.8233 43.5929 39.4179 41.6329 39.4179V39.4179Z" fill="#65FBD2"/>
<path d="M26.1392 10.8179H28.9517V13.6304H26.1392V10.8179Z" fill="#65FBD2"/>
<path d="M31.1875 5.76956H34V8.58206H31.1875V5.76956Z" fill="#65FBD2"/>
</svg>
