<svg width="48" height="48" viewBox="0 0 48 48" fill="none" xmlns="http://www.w3.org/2000/svg">
<path d="M44.7844 36L24 48L3.21564 36V12L24 0L44.7844 12V36Z" fill="url(#paint0_linear_21_11)"/>
<path d="M32.3982 12C32.3393 12 32.279 12.0009 32.2203 12.0034C30.6148 12.0698 29.2141 13.2477 28.4042 14.978C26.838 13.8971 25.0089 13.6007 23.5457 14.3328C22.3489 14.9314 21.4757 16.1091 21.2744 17.5701C21.8577 17.332 22.4246 17.1883 22.9637 17.1212C23.1943 16.5094 23.6529 16.0651 24.2407 15.771C25.3473 15.2175 26.8886 15.2963 28.1066 16.5143L29.0976 17.5053L29.4452 16.1668C29.9093 14.4345 31.081 13.6383 32.2701 13.5895C33.4591 13.5402 34.7167 14.2102 35.1949 15.9189C35.8757 18.352 33.6413 20.3055 32.1138 22.4702H27.049C25.7927 21.9709 24.6025 21.4759 23.8051 20.6478C23.4131 20.5338 23.0204 20.5308 22.6029 20.6595C22.4042 20.7207 22.1965 20.8149 21.981 20.9488C22.8546 22.4414 24.3572 23.3839 25.9633 24.1978C25.9861 24.2094 26.0085 24.2212 26.0314 24.2327C26.21 24.3227 26.3899 24.4113 26.5702 24.4987C26.6175 24.5218 26.664 24.5456 26.7116 24.5686C26.8391 24.6301 26.9664 24.6906 27.094 24.7515C27.8671 25.1207 28.6368 25.4824 29.3454 25.8822C30.2642 26.4009 31.2739 27.3934 32.0057 28.4794C32.226 27.2134 32.3393 26.0446 33.0632 24.9411C34.9776 22.0223 37.6903 19.183 36.6829 15.4236C36.0837 13.1873 34.2227 12.0014 32.3981 12H32.3982ZM16.5024 16.1319C14.6778 16.1334 12.8168 17.3193 12.2175 19.5555C11.2103 23.3148 13.9213 26.1542 15.8356 29.073C16.5595 30.1765 16.6729 31.3452 16.8931 32.6113C17.625 31.5252 18.6345 30.5327 19.5535 30.014C21.9166 28.6803 24.9532 27.7678 26.5703 25.6045C25.628 25.1523 24.767 24.7284 23.6223 23.9999H14.8031C13.9181 22.756 13.3021 21.4871 13.704 20.0509C14.1672 18.3956 15.3622 17.7142 16.5173 17.7182C16.5546 17.7183 16.5916 17.7199 16.6288 17.7215C17.8178 17.7702 18.9912 18.5664 19.4554 20.2987L19.8012 21.6372L20.7939 20.6462C22.0118 19.4282 23.5531 19.3477 24.6597 19.9013C25.0897 20.1164 25.4495 20.4129 25.7022 20.7959C26.3581 21.1585 26.9778 21.3929 27.6159 21.6306C27.3967 20.2017 26.5307 19.0537 25.353 18.4647C23.8898 17.7326 22.0624 18.0273 20.4961 19.1082C19.6862 17.3779 18.2839 16.2016 16.6785 16.1352C16.6198 16.1327 16.5611 16.1318 16.5022 16.1318L16.5024 16.1319ZM32.0839 30.212C31.7383 33.0767 30.4617 32.7021 30.4361 34.5069C30.425 35.3248 31.1918 36 32.1421 36C33.0924 36 33.8763 35.3251 33.8763 34.5068C33.8763 32.6929 32.4653 33.0656 32.0839 30.2119V30.212Z" fill="#0B192F"/>
<defs>
<linearGradient id="paint0_linear_21_11" x1="3.21564" y1="0" x2="50.7232" y2="41.1423" gradientUnits="userSpaceOnUse">
<stop stop-color="#F6BE3B"/>
<stop offset="1" stop-color="#E4C478"/>
</linearGradient>
</defs>
</svg>
