<svg width="48" height="48" viewBox="0 0 48 48" fill="none" xmlns="http://www.w3.org/2000/svg">
<path d="M44.7843 36L24 48L3.21558 36V12L24 0L44.7843 12V36Z" fill="url(#paint0_linear_21_37)"/>
<path d="M31.0361 30.3887L29.3592 28.689C30.5386 27.4554 31.4567 26.0645 32.1127 24.5854L34.9153 25.7283L35.2389 24.9348L32.4363 23.7918C32.9792 22.3382 33.2787 20.8145 33.3343 19.2834L36.1952 19.3027L36.201 18.4456L33.3401 18.4264C33.3022 16.7794 32.9827 15.1371 32.3804 13.5777L34.253 12.79L33.9206 12L24.7935 15.839C24.9214 16.0948 25.0323 16.3589 25.1253 16.6293C25.3191 17.1943 25.4346 17.7831 25.4687 18.3794C25.4716 18.4298 25.4734 18.4802 25.4751 18.5306C25.4759 18.5531 25.477 18.5755 25.4775 18.598C25.4787 18.648 25.4789 18.6981 25.4789 18.7482C25.479 18.7707 25.4793 18.7932 25.4791 18.8158C25.4787 18.8654 25.4773 18.9151 25.4758 18.9647C25.4751 18.988 25.4745 19.0113 25.4735 19.0345C25.4715 19.0822 25.4687 19.13 25.4657 19.1776C25.4298 19.7381 25.3227 20.2947 25.1433 20.8324C25.131 20.8691 25.1178 20.9056 25.1048 20.9422C25.0936 20.974 25.0826 21.0059 25.0708 21.0376C25.0557 21.0782 25.0397 21.1186 25.0238 21.1589C25.0131 21.186 25.0027 21.2132 24.9916 21.2402C24.9735 21.2844 24.9544 21.3283 24.9353 21.3722C24.9257 21.3942 24.9163 21.4161 24.9064 21.438C24.8859 21.4835 24.8648 21.5288 24.8433 21.5739C24.5731 22.1394 24.2224 22.6627 23.8021 23.1275C23.7667 23.1666 23.7313 23.2057 23.6949 23.2442C23.6444 23.2977 23.5931 23.3502 23.5408 23.4019C23.4884 23.4535 23.4352 23.5041 23.3811 23.5539C23.3421 23.5897 23.3025 23.6246 23.2629 23.6594C22.7925 24.0735 22.2645 24.4171 21.6955 24.6796C21.6501 24.7005 21.6045 24.7211 21.5587 24.7409C21.5367 24.7505 21.5146 24.7596 21.4925 24.7689C21.4484 24.7875 21.4042 24.8059 21.3597 24.8234C21.3326 24.8341 21.3053 24.8442 21.2781 24.8545C21.2375 24.87 21.1969 24.8853 21.1561 24.8999C21.1242 24.9112 21.0922 24.9218 21.0603 24.9326C21.0235 24.9451 20.9869 24.9578 20.95 24.9696C20.4122 25.1407 19.8546 25.2415 19.291 25.2697C19.2433 25.2721 19.1956 25.2743 19.1478 25.2756C19.1245 25.2763 19.1013 25.2765 19.078 25.2769C19.0283 25.2778 18.9787 25.2785 18.929 25.2783C18.9065 25.2782 18.8839 25.2775 18.8614 25.2772C18.8113 25.2764 18.7613 25.2756 18.7113 25.2737C18.6888 25.2729 18.6664 25.2715 18.644 25.2704C18.5935 25.2679 18.5431 25.2655 18.4928 25.2619C17.897 25.2199 17.3098 25.0964 16.7475 24.8951C16.4783 24.7984 16.2158 24.6839 15.9618 24.5526L12 33.6272L12.7854 33.9701L13.5983 32.1084C15.1495 32.7317 16.7872 33.0732 18.4336 33.1333L18.4144 35.9942L19.2714 36L19.2906 33.1391C20.8224 33.1041 22.3499 32.8252 23.8107 32.3019L24.9159 35.1197L25.7137 34.8068L24.6086 31.989C26.0964 31.353 27.4996 30.4537 28.749 29.291L30.4259 30.9907L31.0361 30.3887ZM22.9388 22.7918C23.0406 22.6913 23.1386 22.5871 23.2327 22.4794L20.7305 19.9433L24.0315 21.2895C24.1594 21.0336 24.2677 20.7684 24.3553 20.496L21.1812 19.2016L24.6089 19.2247C24.6324 18.9396 24.6343 18.653 24.6147 18.3676L21.0497 18.3436L24.336 16.9613C24.2453 16.69 24.1341 16.4259 24.0033 16.1715L20.5483 17.6247C21.0933 18.3902 21.0192 19.468 20.3303 20.1478C19.6412 20.8276 18.5624 20.8872 17.8044 20.3319L16.3047 23.767C16.5592 23.9023 16.8218 24.0167 17.09 24.1104L18.5165 20.843L18.4924 24.408C18.7775 24.4314 19.0641 24.4333 19.3494 24.4137L19.3726 20.9861L20.6241 24.1773C20.8976 24.0933 21.1644 23.9886 21.4219 23.8642L20.1203 20.5453L22.6225 23.0814C22.7315 22.9888 22.837 22.8922 22.9388 22.7918L22.9388 22.7918ZM19.7283 19.5376C20.1625 19.1093 20.1671 18.423 19.7387 17.9888C19.3104 17.5547 18.6241 17.55 18.1899 17.9784C17.7557 18.4068 17.7511 19.093 18.1795 19.5272C18.6078 19.9614 19.2941 19.966 19.7283 19.5376Z" fill="#0B192F"/>
<defs>
<linearGradient id="paint0_linear_21_37" x1="3.21558" y1="0" x2="50.7232" y2="41.1423" gradientUnits="userSpaceOnUse">
<stop stop-color="#B065FB"/>
<stop offset="1" stop-color="#D1B2EE"/>
</linearGradient>
</defs>
</svg>
