<svg width="48" height="48" viewBox="0 0 48 48" fill="none" xmlns="http://www.w3.org/2000/svg">
<path d="M44.7844 36L24 48L3.21564 36V12L24 0L44.7844 12V36Z" fill="url(#paint0_linear_21_41)"/>
<path d="M24.4125 12.0006C23.9783 12.0111 23.5 12.22 22.9861 12.6529L19.2664 17.9933L23.1899 19.8508L21.4082 18.2381C23.905 13.0398 25.0477 13.1335 27.3614 18.2381L25.6003 19.8333L29.5096 17.9932L25.7804 12.6402C25.2904 12.1635 24.8504 11.9898 24.4125 12.0005V12.0006ZM28.5872 19.4718L24.5736 21.3609L24.3714 21.4557L24.1707 21.3609L20.301 19.5286L15 25.7378L15.9477 26.4517L19.2852 27.2129L20.748 21.2377L21.6182 21.6499L18.1038 35.9999H22.7998L23.588 22.5817L24.3762 22.9545L25.2733 22.5313L26.0647 36H30.7606L27.2351 21.6088L28.107 21.1981L29.5839 27.2256L33.2073 26.3964L33.9371 25.7378L28.5872 19.4718V19.4718ZM16.7059 27.5938C16.642 27.7638 16.6064 27.948 16.6064 28.1402C16.6064 28.9987 17.3022 29.6945 18.1606 29.6945C18.3504 29.6945 18.5328 29.6603 18.701 29.5982L19.0594 28.1307L16.7059 27.5937V27.5938ZM32.2138 27.5938L29.8097 28.1434L30.1588 29.5728C30.3433 29.6504 30.5462 29.6945 30.759 29.6945C31.6175 29.6945 32.3133 28.9987 32.3133 28.1402C32.3133 27.9477 32.2776 27.7638 32.2137 27.5937L32.2138 27.5938Z" fill="#0B192F"/>
<defs>
<linearGradient id="paint0_linear_21_41" x1="3.21564" y1="0" x2="50.7232" y2="41.1423" gradientUnits="userSpaceOnUse">
<stop stop-color="#48DFB7"/>
<stop offset="1" stop-color="#C2FFF0"/>
</linearGradient>
</defs>
</svg>
